<svg version="1.1" id="dxe-0" xmlns:svgjs="http://svgjs.dev/svgjs"
	 xmlns="http://www.w3.org/2000/svg" xmlns:xlink="http://www.w3.org/1999/xlink" x="0px" y="0px" viewBox="0 0 555.7 555.7"
	 style="enable-background:new 0 0 555.7 555.7;" xml:space="preserve">
<style type="text/css">
	.st0{fill:#2563eb;}
	.st1{fill:#FFFFFF;}
	.st2{display:none;fill:none;}
</style>
<g id="icon-0">
	<g>
		<path class="st0" d="M10.6,277.8C10.6,128.8,131.4,8,280.4,8c149,0,269.8,120.8,269.8,269.8c0,149-120.8,269.8-269.8,269.8
			C131.4,547.5,10.6,426.8,10.6,277.8L10.6,277.8z M280.4,536.6c143,0,258.9-115.9,258.9-258.9c0-143-115.9-258.9-258.9-258.9
			c-143,0-258.9,115.9-258.9,258.9S137.4,536.6,280.4,536.6L280.4,536.6z"/>
		<ellipse class="st0" cx="280.4" cy="277.8" rx="267.1" ry="267.1"/>
	</g>
	<g transform="matrix(1,0,0,1,35.952114346347535,31.564479793456968)">
		<g>
			<path class="st1" d="M240.5,114.6l22.5-2.7c1.4-0.2,2.7,0.8,2.9,2.3c0.1,0.6-0.1,1.1-0.3,1.6L254,135.3c-0.4,0.7-0.5,1.6-0.1,2.4
				l9.5,20.6c0.6,1.3,0,2.9-1.3,3.5c-0.5,0.2-1.1,0.3-1.7,0.2l-22.1-4.9c-0.8-0.2-1.7,0-2.3,0.6L219.4,173c-1.1,1-2.7,0.9-3.7-0.1
				c-0.4-0.4-0.6-1-0.7-1.5l-2.1-22.6c-0.1-0.9-0.6-1.6-1.3-2l-19.8-11c-1.3-0.7-1.7-2.3-1-3.5c0.3-0.5,0.7-0.9,1.2-1.1l20.8-9
				c0.8-0.3,1.4-1,1.5-1.9l4.4-22.2c0.3-1.4,1.6-2.3,3.1-2.1c0.6,0.1,1.1,0.4,1.5,0.8l15,17C238.8,114.4,239.6,114.7,240.5,114.6"/>
			<path class="st1" d="M363.1,117.4l13.4-1.6c0.8-0.1,1.6,0.5,1.7,1.3c0,0.3,0,0.7-0.2,1l-6.9,11.6c-0.3,0.4-0.3,1-0.1,1.4
				l5.7,12.2c0.4,0.8,0,1.7-0.8,2.1c-0.3,0.1-0.7,0.2-1,0.1l-13.1-2.9c-0.5-0.1-1,0-1.4,0.4l-9.9,9.2c-0.6,0.6-1.6,0.5-2.2-0.1
				c-0.2-0.2-0.4-0.6-0.4-0.9l-1.3-13.4c0-0.5-0.3-1-0.8-1.2l-11.8-6.6c-0.7-0.4-1-1.4-0.6-2.1c0.2-0.3,0.4-0.5,0.7-0.7l12.4-5.3
				c0.5-0.2,0.8-0.6,0.9-1.1l2.6-13.2c0.2-0.8,1-1.4,1.8-1.2c0.3,0.1,0.6,0.2,0.9,0.5l8.9,10.1C362.1,117.3,362.6,117.5,363.1,117.4
				"/>
			<path class="st1" d="M328,271.8l6.7-10.4c0.4-0.7,1.3-0.8,2-0.4c0.3,0.2,0.5,0.4,0.6,0.7l4.1,11.7c0.2,0.4,0.5,0.8,1,0.9l12,3.2
				c1.1,0.3,1.4,1.8,0.5,2.5l-9.8,7.6c-0.4,0.3-0.6,0.7-0.6,1.2l0.7,12.4c0,0.8-0.6,1.5-1.3,1.5c-0.3,0-0.6-0.1-0.9-0.2l-10.2-7
				c-0.4-0.3-0.9-0.3-1.3-0.2l-11.6,4.4c-0.7,0.3-1.6-0.1-1.8-0.8c-0.1-0.3-0.1-0.6,0-0.9l3.5-11.9c0.1-0.4,0-0.9-0.3-1.3l-7.8-9.6
				c-0.5-0.6-0.4-1.5,0.2-2c0.2-0.2,0.5-0.3,0.9-0.3l12.4-0.3C327.3,272.4,327.7,272.2,328,271.8"/>
			<g>
				<path class="st1" d="M292.1,241.6l37.2-37.2c5.6-5.6,5.6-14.8,0-20.4l-6-6c-5.6-5.6-14.8-5.6-20.4,0l-37.2,37.2L292.1,241.6z"/>
				<path class="st1" d="M258.6,222.1L114.9,365.9c-5.6,5.6-5.6,14.8,0,20.4l6,6c5.6,5.6,14.8,5.6,20.4,0l143.7-143.7L258.6,222.1z"
					/>
			</g>
		</g>
	</g>
</g>
<rect x="-468.7" y="-132.7" class="st2" width="1496.4" height="820.8"/>
</svg>
